<?xml version="1.0" ?><svg style="enable-background:new 0 0 64 64;" version="1.1" viewBox="0 0 64 64" xml:space="preserve" xmlns="http://www.w3.org/2000/svg" xmlns:xlink="http://www.w3.org/1999/xlink"><style type="text/css">
	.st0{fill:#0072FF;}
</style><g id="GUIDES_64"/><g id="Layer_3"/><g id="Layer_2"><path class="st0" d="M6.6,52h11.5c1.1,0,2.1-0.8,2.4-1.8l2.8-11.4c0.4-1.6,1.9-2.8,3.6-2.8H36c8.8,0,16-7.2,16-16v0   c0-8.8-7.2-16-16-16h-4H21.1c-3,0-5.6,2-6.3,4.9L4.7,49.5C4.4,50.8,5.3,52,6.6,52z"/><path class="st0" d="M56,20c0,11-9,20-20,20h-6.2c-1.6,0-2.9,1.1-3.3,2.6l-2.6,10.5c-0.4,1.7-2,2.9-3.7,2.9h-5.5   c-1,0-1.8,0.7-2,1.6c-0.3,1.2,0.6,2.5,1.9,2.5h11.6c1.1,0,2.1-0.8,2.4-1.8l2.8-11.4c0.4-1.6,1.9-2.8,3.6-2.8H44c8.8,0,16-7.2,16-16   v0c0-4.2-1.6-8-4.3-10.8C55.9,18.1,56,19,56,20z"/></g></svg>