<svg id="svg" version="1.1" xmlns="http://www.w3.org/2000/svg" xmlns:xlink="http://www.w3.org/1999/xlink" width="400" height="400" viewBox="0, 0, 400,400"><g id="svgg"><path id="path0" d="M151.867 105.067 C 151.720 105.213,151.600 135.927,151.600 173.320 C 151.600 213.017,151.448 241.909,151.235 242.754 C 151.034 243.549,150.653 245.190,150.387 246.400 C 146.160 265.695,129.188 278.068,110.285 275.635 C 106.028 275.088,102.766 274.396,102.220 273.927 C 102.011 273.747,101.588 273.600,101.281 273.600 C 100.503 273.600,94.451 270.589,93.035 269.498 C 87.975 265.599,83.780 260.577,81.594 255.800 C 79.200 250.567,78.465 248.105,77.567 242.300 L 77.087 239.200 65.324 239.200 L 53.560 239.200 53.793 241.700 C 54.446 248.719,56.725 256.620,60.110 263.600 C 64.749 273.167,70.690 280.027,79.413 285.890 C 81.700 287.427,87.196 290.400,87.751 290.400 C 87.893 290.400,88.772 290.736,89.704 291.146 C 99.587 295.492,116.093 296.910,127.700 294.409 C 128.745 294.184,130.365 293.842,131.300 293.648 C 149.039 289.976,165.959 274.524,172.086 256.400 C 173.808 251.307,174.177 249.847,175.174 244.176 C 175.464 242.524,175.600 219.946,175.600 173.276 L 175.600 104.800 163.867 104.800 C 157.413 104.800,152.013 104.920,151.867 105.067 M223.699 198.886 L 223.800 293.000 235.200 293.000 L 246.600 293.000 246.702 254.822 C 246.782 224.890,246.912 216.576,247.302 216.328 C 247.881 215.961,283.622 215.880,284.570 216.244 C 284.920 216.378,286.217 218.583,287.452 221.144 C 288.687 223.705,291.565 229.620,293.848 234.290 C 296.132 238.959,298.000 242.858,298.000 242.953 C 298.000 243.049,299.909 247.059,302.242 251.864 C 310.412 268.689,313.100 274.250,316.037 280.400 C 317.665 283.810,319.718 288.040,320.599 289.800 L 322.200 293.000 334.400 293.000 C 346.499 293.000,346.601 292.993,346.720 292.158 C 346.824 291.433,338.105 273.580,311.793 220.632 C 309.287 215.590,307.327 211.318,307.437 211.140 C 307.548 210.961,308.664 210.304,309.919 209.679 C 327.893 200.732,337.425 189.063,341.677 170.800 C 343.784 161.750,341.638 145.646,337.007 135.751 C 331.660 124.327,319.477 113.663,307.600 110.010 C 306.610 109.705,305.620 109.332,305.400 109.182 C 305.180 109.031,304.460 108.785,303.800 108.636 C 302.271 108.290,300.235 107.773,298.200 107.214 C 296.171 106.656,292.640 106.018,288.800 105.515 C 287.150 105.299,271.805 105.043,254.699 104.947 L 223.598 104.772 223.699 198.886 M285.179 124.434 C 291.650 125.256,294.515 126.091,300.200 128.812 C 302.180 129.759,303.890 130.651,304.000 130.794 C 304.110 130.936,305.010 131.610,306.000 132.290 C 310.725 135.540,315.265 142.198,317.120 148.600 C 323.392 170.244,312.933 189.466,291.800 195.136 C 286.471 196.565,285.870 196.600,266.400 196.600 L 247.000 196.600 246.897 160.800 C 246.840 141.110,246.879 124.775,246.984 124.500 C 247.234 123.845,280.095 123.789,285.179 124.434 " stroke="none" fill="#fada1c" fill-rule="evenodd"></path><path id="path1" d="M30.400 0.291 C 29.630 0.382,28.829 0.624,28.620 0.829 C 28.411 1.033,27.837 1.200,27.344 1.200 C 26.851 1.200,26.336 1.380,26.200 1.600 C 26.064 1.820,25.513 2.000,24.976 2.000 C 24.439 2.000,24.000 2.180,24.000 2.400 C 24.000 2.620,23.640 2.800,23.200 2.800 C 22.760 2.800,22.400 2.980,22.400 3.200 C 22.400 3.420,22.040 3.600,21.600 3.600 C 21.160 3.600,20.800 3.780,20.800 4.000 C 20.800 4.220,20.440 4.400,20.000 4.400 C 19.560 4.400,19.200 4.580,19.200 4.800 C 19.200 5.020,18.912 5.200,18.560 5.200 C 18.209 5.200,17.417 5.740,16.800 6.400 C 16.183 7.060,15.483 7.600,15.243 7.600 C 14.218 7.600,7.600 14.206,7.600 15.229 C 7.600 15.476,7.060 16.183,6.400 16.800 C 5.740 17.417,5.200 18.209,5.200 18.560 C 5.200 18.912,5.020 19.200,4.800 19.200 C 4.580 19.200,4.400 19.560,4.400 20.000 C 4.400 20.440,4.220 20.800,4.000 20.800 C 3.780 20.800,3.600 21.160,3.600 21.600 C 3.600 22.040,3.420 22.400,3.200 22.400 C 2.980 22.400,2.800 22.760,2.800 23.200 C 2.800 23.640,2.620 24.000,2.400 24.000 C 2.180 24.000,2.000 24.439,2.000 24.976 C 2.000 25.513,1.820 26.064,1.600 26.200 C 1.380 26.336,1.200 26.851,1.200 27.344 C 1.200 27.837,0.975 28.465,0.700 28.740 C -0.036 29.476,-0.036 370.524,0.700 371.260 C 0.975 371.535,1.200 372.163,1.200 372.656 C 1.200 373.149,1.380 373.664,1.600 373.800 C 1.820 373.936,2.000 374.487,2.000 375.024 C 2.000 375.561,2.180 376.000,2.400 376.000 C 2.620 376.000,2.800 376.360,2.800 376.800 C 2.800 377.240,2.980 377.600,3.200 377.600 C 3.420 377.600,3.600 377.960,3.600 378.400 C 3.600 378.840,3.780 379.200,4.000 379.200 C 4.220 379.200,4.400 379.560,4.400 380.000 C 4.400 380.440,4.580 380.800,4.800 380.800 C 5.020 380.800,5.200 381.088,5.200 381.440 C 5.200 381.791,5.740 382.583,6.400 383.200 C 7.060 383.817,7.600 384.517,7.600 384.757 C 7.600 385.782,14.206 392.400,15.229 392.400 C 15.476 392.400,16.183 392.940,16.800 393.600 C 17.417 394.260,18.209 394.800,18.560 394.800 C 18.912 394.800,19.200 394.980,19.200 395.200 C 19.200 395.420,19.560 395.600,20.000 395.600 C 20.440 395.600,20.800 395.780,20.800 396.000 C 20.800 396.220,21.160 396.400,21.600 396.400 C 22.040 396.400,22.400 396.580,22.400 396.800 C 22.400 397.020,22.760 397.200,23.200 397.200 C 23.640 397.200,24.000 397.380,24.000 397.600 C 24.000 397.820,24.439 398.000,24.976 398.000 C 25.513 398.000,26.064 398.180,26.200 398.400 C 26.336 398.620,26.851 398.800,27.344 398.800 C 27.837 398.800,28.465 399.025,28.740 399.300 C 29.476 400.036,370.524 400.036,371.260 399.300 C 371.535 399.025,372.163 398.800,372.656 398.800 C 373.149 398.800,373.664 398.620,373.800 398.400 C 373.936 398.180,374.487 398.000,375.024 398.000 C 375.561 398.000,376.000 397.820,376.000 397.600 C 376.000 397.380,376.360 397.200,376.800 397.200 C 377.240 397.200,377.600 397.020,377.600 396.800 C 377.600 396.580,377.960 396.400,378.400 396.400 C 378.840 396.400,379.200 396.220,379.200 396.000 C 379.200 395.780,379.560 395.600,380.000 395.600 C 380.440 395.600,380.800 395.420,380.800 395.200 C 380.800 394.980,381.088 394.800,381.440 394.800 C 381.791 394.800,382.583 394.260,383.200 393.600 C 383.817 392.940,384.524 392.400,384.771 392.400 C 385.794 392.400,392.400 385.782,392.400 384.757 C 392.400 384.517,392.940 383.817,393.600 383.200 C 394.260 382.583,394.800 381.791,394.800 381.440 C 394.800 381.088,394.980 380.800,395.200 380.800 C 395.420 380.800,395.600 380.440,395.600 380.000 C 395.600 379.560,395.780 379.200,396.000 379.200 C 396.220 379.200,396.400 378.840,396.400 378.400 C 396.400 377.960,396.580 377.600,396.800 377.600 C 397.020 377.600,397.200 377.240,397.200 376.800 C 397.200 376.360,397.380 376.000,397.600 376.000 C 397.820 376.000,398.000 375.561,398.000 375.024 C 398.000 374.487,398.180 373.936,398.400 373.800 C 398.620 373.664,398.800 373.149,398.800 372.656 C 398.800 372.163,399.025 371.535,399.300 371.260 C 400.036 370.524,400.036 29.476,399.300 28.740 C 399.025 28.465,398.800 27.837,398.800 27.344 C 398.800 26.851,398.620 26.336,398.400 26.200 C 398.180 26.064,398.000 25.513,398.000 24.976 C 398.000 24.439,397.820 24.000,397.600 24.000 C 397.380 24.000,397.200 23.640,397.200 23.200 C 397.200 22.760,397.020 22.400,396.800 22.400 C 396.580 22.400,396.400 22.040,396.400 21.600 C 396.400 21.160,396.220 20.800,396.000 20.800 C 395.780 20.800,395.600 20.440,395.600 20.000 C 395.600 19.560,395.420 19.200,395.200 19.200 C 394.980 19.200,394.800 18.912,394.800 18.560 C 394.800 18.209,394.260 17.417,393.600 16.800 C 392.940 16.183,392.400 15.476,392.400 15.229 C 392.400 14.206,385.782 7.600,384.757 7.600 C 384.517 7.600,383.817 7.060,383.200 6.400 C 382.583 5.740,381.791 5.200,381.440 5.200 C 381.088 5.200,380.800 5.020,380.800 4.800 C 380.800 4.580,380.440 4.400,380.000 4.400 C 379.560 4.400,379.200 4.220,379.200 4.000 C 379.200 3.780,378.840 3.600,378.400 3.600 C 377.960 3.600,377.600 3.420,377.600 3.200 C 377.600 2.980,377.240 2.800,376.800 2.800 C 376.360 2.800,376.000 2.620,376.000 2.400 C 376.000 2.180,375.561 2.000,375.024 2.000 C 374.487 2.000,373.936 1.820,373.800 1.600 C 373.664 1.380,373.149 1.200,372.656 1.200 C 372.163 1.200,371.535 0.975,371.260 0.700 C 370.782 0.222,34.383 -0.182,30.400 0.291 M176.552 171.400 C 176.506 235.598,176.382 244.919,175.562 245.780 C 175.363 245.989,175.200 247.013,175.200 248.056 C 175.200 249.099,175.020 250.064,174.800 250.200 C 174.580 250.336,174.400 250.829,174.400 251.295 C 174.400 252.099,173.870 254.043,173.171 255.800 C 172.996 256.240,172.621 257.320,172.338 258.200 C 171.454 260.952,166.546 270.311,165.373 271.484 C 165.051 271.806,164.298 272.729,163.699 273.535 C 158.909 279.982,150.946 286.344,142.800 290.231 C 141.150 291.019,139.487 291.829,139.105 292.031 C 138.723 292.234,138.048 292.400,137.605 292.400 C 137.162 292.400,136.800 292.580,136.800 292.800 C 136.800 293.020,136.361 293.200,135.824 293.200 C 135.287 293.200,134.736 293.380,134.600 293.600 C 134.464 293.820,133.744 294.000,133.000 294.000 C 132.256 294.000,131.536 294.180,131.400 294.400 C 131.264 294.620,130.569 294.800,129.856 294.800 C 129.143 294.800,128.389 294.964,128.180 295.165 C 126.838 296.453,101.988 296.447,100.620 295.158 C 100.411 294.961,99.567 294.800,98.744 294.800 C 97.921 294.800,97.136 294.620,97.000 294.400 C 96.864 294.180,96.234 294.000,95.600 294.000 C 94.966 294.000,94.336 293.820,94.200 293.600 C 94.064 293.380,93.524 293.200,93.000 293.200 C 92.476 293.200,91.936 293.020,91.800 292.800 C 91.664 292.580,91.113 292.400,90.576 292.400 C 90.039 292.400,89.600 292.220,89.600 292.000 C 89.600 291.780,89.253 291.600,88.829 291.600 C 86.037 291.600,75.271 284.509,70.000 279.198 C 66.775 275.949,61.620 269.157,61.591 268.118 C 61.586 267.943,61.230 267.350,60.800 266.800 C 60.370 266.250,60.014 265.485,60.009 265.100 C 60.004 264.715,59.820 264.400,59.600 264.400 C 59.380 264.400,59.200 264.040,59.200 263.600 C 59.200 263.160,59.020 262.800,58.800 262.800 C 58.580 262.800,58.400 262.528,58.400 262.195 C 58.400 261.862,58.241 261.277,58.047 260.895 C 57.852 260.513,57.516 259.750,57.300 259.200 C 57.084 258.650,56.723 257.750,56.499 257.200 C 56.275 256.650,55.873 255.390,55.607 254.400 C 55.340 253.410,54.960 252.287,54.761 251.905 C 54.562 251.523,54.400 250.589,54.400 249.829 C 54.400 249.069,54.243 248.350,54.050 248.231 C 53.625 247.968,53.140 244.333,53.059 240.800 L 53.000 238.200 65.152 238.094 C 79.251 237.971,78.400 237.731,78.400 241.825 C 78.400 243.435,78.580 244.864,78.800 245.000 C 79.020 245.136,79.200 245.946,79.200 246.800 C 79.200 247.654,79.380 248.464,79.600 248.600 C 79.820 248.736,80.000 249.276,80.000 249.800 C 80.000 250.324,80.180 250.864,80.400 251.000 C 80.620 251.136,80.803 251.552,80.807 251.924 C 80.842 255.057,91.198 268.800,93.524 268.800 C 93.717 268.800,94.399 269.250,95.038 269.800 C 95.677 270.349,96.427 270.799,96.705 270.800 C 97.197 270.800,98.798 271.581,99.200 272.017 C 99.310 272.136,100.210 272.482,101.200 272.786 C 102.190 273.090,103.171 273.488,103.380 273.670 C 103.589 273.851,104.433 274.000,105.256 274.000 C 106.079 274.000,106.864 274.180,107.000 274.400 C 107.150 274.643,110.130 274.800,114.600 274.800 C 119.070 274.800,122.050 274.643,122.200 274.400 C 122.336 274.180,123.056 274.000,123.800 274.000 C 124.544 274.000,125.264 273.820,125.400 273.600 C 125.536 273.380,125.999 273.200,126.429 273.200 C 126.859 273.200,127.523 273.032,127.905 272.826 C 128.287 272.621,129.185 272.217,129.900 271.929 C 130.615 271.640,131.200 271.269,131.200 271.102 C 131.200 270.936,131.386 270.800,131.613 270.800 C 132.995 270.800,140.189 264.957,142.042 262.328 C 142.557 261.598,143.298 260.651,143.689 260.225 C 144.080 259.798,144.400 259.228,144.400 258.958 C 144.400 258.688,144.535 258.407,144.700 258.333 C 145.432 258.008,147.517 253.128,149.116 248.000 C 149.589 246.482,150.150 243.447,150.792 238.923 C 151.056 237.059,151.200 212.881,151.200 170.290 C 151.200 134.124,151.323 104.411,151.472 104.261 C 151.622 104.111,157.337 104.036,164.172 104.094 L 176.600 104.200 176.552 171.400 M284.400 104.425 C 287.150 104.621,290.570 104.971,292.000 105.202 C 293.430 105.434,295.320 105.726,296.200 105.853 C 297.080 105.979,297.971 106.244,298.180 106.441 C 298.389 106.638,299.143 106.800,299.856 106.800 C 300.569 106.800,301.264 106.980,301.400 107.200 C 301.536 107.420,302.166 107.600,302.800 107.600 C 303.434 107.600,304.064 107.780,304.200 108.000 C 304.336 108.220,304.887 108.400,305.424 108.400 C 305.961 108.400,306.400 108.580,306.400 108.800 C 306.400 109.020,306.839 109.200,307.376 109.200 C 307.913 109.200,308.464 109.380,308.600 109.600 C 308.736 109.820,309.152 110.001,309.524 110.002 C 310.828 110.006,321.301 115.686,322.800 117.202 C 322.910 117.314,323.631 117.874,324.403 118.448 C 326.208 119.792,330.208 123.792,331.552 125.597 C 332.126 126.369,332.700 127.090,332.828 127.200 C 334.886 128.972,340.800 141.023,340.800 143.445 C 340.800 143.944,340.980 144.464,341.200 144.600 C 341.420 144.736,341.600 145.431,341.600 146.144 C 341.600 146.857,341.765 147.611,341.968 147.820 C 342.785 148.665,343.569 167.391,342.818 168.142 C 342.588 168.372,342.400 169.413,342.400 170.456 C 342.400 171.499,342.220 172.464,342.000 172.600 C 341.780 172.736,341.600 173.456,341.600 174.200 C 341.600 174.944,341.420 175.664,341.200 175.800 C 340.980 175.936,340.800 176.566,340.800 177.200 C 340.800 177.834,340.620 178.464,340.400 178.600 C 340.180 178.736,340.000 179.131,340.000 179.477 C 340.000 180.873,334.983 190.411,333.624 191.600 C 333.498 191.710,332.891 192.477,332.274 193.305 C 329.220 197.401,318.861 206.400,317.199 206.400 C 316.980 206.400,316.799 206.535,316.797 206.700 C 316.795 206.865,316.390 207.194,315.897 207.431 C 315.404 207.667,313.470 208.653,311.600 209.621 C 309.730 210.589,308.158 211.397,308.107 211.416 C 308.056 211.436,311.341 218.093,315.407 226.209 C 319.473 234.326,322.800 241.199,322.800 241.483 C 322.800 241.768,322.980 242.000,323.200 242.000 C 323.420 242.000,323.600 242.360,323.600 242.800 C 323.600 243.240,323.780 243.600,324.000 243.600 C 324.220 243.600,324.400 243.960,324.400 244.400 C 324.400 244.840,324.580 245.200,324.800 245.200 C 325.020 245.200,325.200 245.560,325.200 246.000 C 325.200 246.440,325.380 246.800,325.600 246.800 C 325.820 246.800,326.000 247.160,326.000 247.600 C 326.000 248.040,326.180 248.400,326.400 248.400 C 326.620 248.400,326.800 248.760,326.800 249.200 C 326.800 249.640,326.980 250.000,327.200 250.000 C 327.420 250.000,327.600 250.345,327.600 250.767 C 327.600 251.188,327.736 251.593,327.903 251.667 C 328.069 251.740,329.850 255.130,331.860 259.200 C 333.869 263.270,338.337 272.306,341.787 279.280 C 345.703 287.195,348.012 292.306,347.930 292.880 L 347.800 293.800 335.048 293.906 C 320.538 294.026,321.773 294.330,319.789 290.150 C 317.685 285.715,313.318 276.607,311.560 272.986 C 310.702 271.218,310.000 269.553,310.000 269.286 C 310.000 269.019,309.820 268.800,309.600 268.800 C 309.380 268.800,309.200 268.440,309.200 268.000 C 309.200 267.560,309.020 267.200,308.800 267.200 C 308.580 267.200,308.400 266.955,308.400 266.655 C 308.400 266.356,307.680 264.711,306.800 263.000 C 305.920 261.289,305.200 259.644,305.200 259.345 C 305.200 259.045,305.065 258.799,304.900 258.797 C 304.541 258.793,303.600 256.856,303.600 256.120 C 303.600 255.834,303.420 255.600,303.200 255.600 C 302.980 255.600,302.800 255.240,302.800 254.800 C 302.800 254.360,302.620 254.000,302.400 254.000 C 302.180 254.000,302.000 253.781,302.000 253.513 C 302.000 253.246,301.119 251.221,300.042 249.013 C 298.965 246.806,297.057 242.840,295.803 240.200 C 294.549 237.560,291.948 232.160,290.023 228.200 C 288.098 224.240,286.090 220.058,285.561 218.907 L 284.600 216.814 266.300 216.807 L 248.000 216.800 248.000 254.920 C 248.000 284.036,247.887 293.153,247.520 293.520 C 246.585 294.455,223.324 294.178,222.814 293.226 C 222.365 292.388,222.196 105.798,222.643 104.633 C 222.922 103.906,274.662 103.732,284.400 104.425 M248.000 160.187 L 248.000 196.015 266.900 195.871 C 279.607 195.775,286.521 195.570,288.000 195.247 C 289.210 194.983,290.787 194.664,291.504 194.539 C 292.221 194.414,292.906 194.151,293.027 193.956 C 293.148 193.760,293.599 193.600,294.029 193.600 C 294.459 193.600,295.123 193.441,295.505 193.247 C 295.887 193.052,296.740 192.671,297.400 192.400 C 298.060 192.128,299.050 191.646,299.600 191.328 C 300.150 191.011,300.915 190.651,301.300 190.529 C 301.685 190.407,302.000 190.148,302.000 189.953 C 302.000 189.759,302.236 189.600,302.525 189.600 C 302.813 189.600,303.398 189.280,303.825 188.889 C 304.251 188.498,305.230 187.736,306.000 187.196 C 309.981 184.402,314.819 177.471,316.329 172.400 C 316.558 171.630,316.983 170.190,317.273 169.200 C 317.965 166.836,317.963 153.003,317.270 152.310 C 317.012 152.052,316.800 151.433,316.800 150.935 C 316.800 143.176,306.985 132.094,296.400 127.903 C 295.850 127.685,295.087 127.348,294.705 127.153 C 294.323 126.959,293.468 126.800,292.805 126.800 C 292.142 126.800,291.600 126.620,291.600 126.400 C 291.600 126.180,290.826 126.000,289.880 126.000 C 288.934 126.000,287.989 125.833,287.780 125.628 C 287.185 125.046,281.485 124.791,264.100 124.566 L 248.000 124.358 248.000 160.187 " stroke="none" fill="#0c0c1c" fill-rule="evenodd"></path><path id="path2" d="M176.000 170.920 L 176.200 237.400 176.301 171.221 C 176.357 134.823,176.267 104.907,176.101 104.741 C 175.936 104.576,175.890 134.356,176.000 170.920 M281.900 104.689 C 282.615 104.778,283.785 104.778,284.500 104.689 C 285.215 104.601,284.630 104.528,283.200 104.528 C 281.770 104.528,281.185 104.601,281.900 104.689 M329.200 123.725 C 329.200 123.794,329.785 124.379,330.500 125.025 L 331.800 126.200 330.625 124.900 C 329.530 123.688,329.200 123.416,329.200 123.725 M247.294 160.076 C 247.242 179.808,247.335 196.036,247.500 196.138 C 247.772 196.306,247.769 170.480,247.494 137.000 C 247.436 129.960,247.346 140.344,247.294 160.076 M342.493 155.600 C 342.493 156.370,342.575 156.685,342.676 156.300 C 342.776 155.915,342.776 155.285,342.676 154.900 C 342.575 154.515,342.493 154.830,342.493 155.600 M342.940 161.600 C 342.940 163.470,343.009 164.235,343.093 163.300 C 343.177 162.365,343.177 160.835,343.093 159.900 C 343.009 158.965,342.940 159.730,342.940 161.600 M318.514 161.000 C 318.517 162.100,318.595 162.503,318.687 161.895 C 318.779 161.286,318.777 160.386,318.682 159.895 C 318.587 159.403,318.511 159.900,318.514 161.000 M307.375 186.500 L 306.200 187.800 307.500 186.625 C 308.215 185.979,308.800 185.394,308.800 185.325 C 308.800 185.016,308.470 185.288,307.375 186.500 M327.787 197.700 L 325.400 200.200 327.900 197.813 C 329.275 196.499,330.400 195.374,330.400 195.313 C 330.400 195.017,330.005 195.378,327.787 197.700 M280.905 196.287 C 281.514 196.379,282.414 196.377,282.905 196.282 C 283.397 196.187,282.900 196.111,281.800 196.114 C 280.700 196.117,280.297 196.195,280.905 196.287 M247.384 216.900 C 247.279 217.175,247.241 234.410,247.299 255.200 L 247.404 293.000 247.502 254.892 L 247.600 216.785 266.362 216.892 C 276.681 216.952,285.040 216.865,284.938 216.700 C 284.592 216.141,247.599 216.338,247.384 216.900 M151.293 237.200 C 151.293 237.970,151.375 238.285,151.476 237.900 C 151.576 237.515,151.576 236.885,151.476 236.500 C 151.375 236.115,151.293 236.430,151.293 237.200 M65.360 238.791 C 76.849 238.992,77.332 239.031,77.632 239.800 C 77.847 240.353,77.952 240.408,77.972 239.980 C 78.040 238.474,77.386 238.397,65.220 238.491 L 53.400 238.582 65.360 238.791 M78.101 243.000 C 78.105 243.880,78.187 244.193,78.283 243.695 C 78.379 243.198,78.375 242.478,78.275 242.095 C 78.175 241.713,78.096 242.120,78.101 243.000 M88.800 265.400 C 89.995 266.610,91.063 267.600,91.173 267.600 C 91.283 267.600,90.395 266.610,89.200 265.400 C 88.005 264.190,86.937 263.200,86.827 263.200 C 86.717 263.200,87.605 264.190,88.800 265.400 M139.600 265.400 C 138.628 266.390,137.923 267.200,138.033 267.200 C 138.143 267.200,139.028 266.390,140.000 265.400 C 140.972 264.410,141.677 263.600,141.567 263.600 C 141.457 263.600,140.572 264.410,139.600 265.400 M108.900 275.076 C 109.285 275.176,109.915 275.176,110.300 275.076 C 110.685 274.975,110.370 274.893,109.600 274.893 C 108.830 274.893,108.515 274.975,108.900 275.076 M113.491 275.489 C 114.201 275.577,115.461 275.579,116.291 275.492 C 117.121 275.405,116.540 275.333,115.000 275.331 C 113.460 275.329,112.781 275.400,113.491 275.489 M113.300 296.291 C 114.125 296.378,115.475 296.378,116.300 296.291 C 117.125 296.205,116.450 296.134,114.800 296.134 C 113.150 296.134,112.475 296.205,113.300 296.291 " stroke="none" fill="#64561c" fill-rule="evenodd"></path><path id="path3" d="M151.865 104.694 C 151.761 104.862,157.058 104.950,163.637 104.889 L 175.598 104.777 175.701 173.589 L 175.803 242.400 175.802 173.500 L 175.800 104.600 163.927 104.494 C 157.397 104.436,151.969 104.526,151.865 104.694 M223.385 104.900 C 223.280 105.175,223.241 147.700,223.297 199.400 L 223.400 293.400 235.200 293.400 L 247.000 293.400 247.200 255.000 L 247.400 216.600 266.000 216.394 L 284.600 216.188 266.200 216.100 C 256.080 216.052,247.576 216.155,247.302 216.328 C 246.912 216.576,246.782 224.890,246.702 254.822 L 246.600 293.000 235.200 293.000 L 223.800 293.000 223.699 198.903 L 223.598 104.805 252.299 104.700 L 281.000 104.595 252.287 104.497 C 229.613 104.420,223.535 104.505,223.385 104.900 M285.400 105.223 C 286.280 105.405,287.720 105.542,288.600 105.527 L 290.200 105.500 288.400 105.180 C 287.410 105.003,285.970 104.867,285.200 104.876 L 283.800 104.892 285.400 105.223 M292.200 106.000 C 292.640 106.189,293.450 106.338,294.000 106.332 L 295.000 106.320 294.000 106.000 C 293.450 105.824,292.640 105.674,292.200 105.668 L 291.400 105.656 292.200 106.000 M296.600 106.800 C 297.040 106.989,297.760 107.138,298.200 107.132 C 298.843 107.123,298.804 107.057,298.000 106.800 C 296.632 106.362,295.581 106.362,296.600 106.800 M299.600 107.600 C 299.930 107.813,300.650 107.973,301.200 107.954 L 302.200 107.920 301.200 107.600 C 299.658 107.106,298.836 107.106,299.600 107.600 M302.800 108.382 C 303.130 108.605,303.745 108.791,304.167 108.794 C 305.190 108.802,304.871 108.573,303.400 108.244 C 302.524 108.048,302.362 108.085,302.800 108.382 M305.353 109.086 C 305.683 109.417,308.465 110.394,309.000 110.369 C 309.465 110.346,307.919 109.675,306.246 109.172 C 305.611 108.981,305.209 108.942,305.353 109.086 M309.600 110.530 C 309.600 110.628,311.321 111.551,313.424 112.581 C 315.527 113.611,318.677 115.427,320.424 116.616 C 322.171 117.806,323.598 118.649,323.595 118.489 C 323.592 118.330,322.917 117.762,322.095 117.226 C 319.515 115.544,314.349 112.400,314.166 112.400 C 314.014 112.400,310.728 110.944,309.900 110.510 C 309.735 110.424,309.600 110.433,309.600 110.530 M327.500 122.348 C 329.535 124.392,331.200 126.230,331.200 126.432 C 331.200 126.635,331.394 126.800,331.630 126.800 C 332.225 126.800,327.590 121.644,325.504 119.986 C 324.567 119.240,325.465 120.303,327.500 122.348 M246.984 124.500 C 246.879 124.775,246.840 141.110,246.897 160.800 L 247.000 196.600 264.800 196.701 C 274.590 196.757,283.678 196.667,284.996 196.501 C 286.314 196.335,278.394 196.200,267.396 196.200 L 247.400 196.200 247.298 160.275 L 247.196 124.351 266.463 124.475 C 277.061 124.544,285.027 124.475,284.166 124.323 C 281.137 123.787,247.194 123.949,246.984 124.500 M286.033 124.944 C 286.125 125.023,287.190 125.199,288.400 125.334 C 289.870 125.498,290.401 125.452,290.000 125.196 C 289.456 124.848,285.642 124.606,286.033 124.944 M291.600 126.000 C 293.142 126.494,293.964 126.494,293.200 126.000 C 292.870 125.787,292.150 125.627,291.600 125.646 L 290.600 125.680 291.600 126.000 M294.600 126.800 C 295.701 127.273,296.092 127.273,295.800 126.800 C 295.664 126.580,295.158 126.413,294.676 126.428 C 293.831 126.455,293.829 126.469,294.600 126.800 M298.433 128.152 C 298.841 128.524,302.800 130.393,302.800 130.213 C 302.800 129.988,298.980 128.000,298.547 128.000 C 298.393 128.000,298.342 128.068,298.433 128.152 M334.337 130.692 C 336.442 133.693,339.825 141.868,340.756 146.200 C 341.774 150.936,341.980 151.612,341.732 149.400 C 341.127 144.001,336.351 131.728,334.184 130.000 C 333.576 129.515,333.605 129.648,334.337 130.692 M305.200 131.985 C 309.198 135.362,310.577 136.823,312.424 139.637 C 313.579 141.396,315.139 144.312,315.891 146.118 C 316.643 147.923,317.145 148.860,317.007 148.200 C 315.987 143.316,310.388 135.245,306.000 132.334 C 305.010 131.677,304.650 131.520,305.200 131.985 M317.234 150.200 C 317.222 150.640,317.387 151.270,317.600 151.600 C 318.114 152.395,318.114 151.396,317.600 150.200 L 317.256 149.400 317.234 150.200 M342.196 160.800 C 342.198 165.750,342.319 168.900,342.465 167.800 C 342.794 165.313,342.785 158.325,342.446 154.600 C 342.299 152.981,342.194 155.597,342.196 160.800 M318.282 156.000 C 318.404 157.650,318.571 159.075,318.652 159.167 C 318.928 159.477,318.707 155.408,318.383 154.200 C 318.186 153.468,318.147 154.169,318.282 156.000 M318.264 165.350 C 318.101 166.863,318.050 168.183,318.151 168.284 C 318.414 168.547,318.910 164.250,318.719 163.353 C 318.631 162.939,318.426 163.838,318.264 165.350 M317.429 170.229 C 317.281 170.815,317.238 171.372,317.332 171.466 C 317.427 171.560,317.624 171.158,317.771 170.571 C 317.919 169.985,317.962 169.428,317.868 169.334 C 317.773 169.240,317.576 169.642,317.429 170.229 M341.400 171.600 C 341.246 172.510,341.204 173.338,341.307 173.440 C 341.410 173.543,341.613 172.877,341.760 171.960 C 341.907 171.043,341.948 170.215,341.853 170.120 C 341.758 170.024,341.554 170.690,341.400 171.600 M316.267 174.067 C 315.905 174.988,315.674 175.807,315.754 175.888 C 315.834 175.968,316.200 175.283,316.567 174.367 C 316.933 173.450,317.164 172.631,317.079 172.546 C 316.994 172.461,316.629 173.145,316.267 174.067 M340.564 175.100 C 340.213 176.634,339.419 179.029,338.442 181.500 C 337.547 183.763,337.631 184.458,338.537 182.290 C 339.950 178.906,341.417 174.000,341.015 174.000 C 340.905 174.000,340.702 174.495,340.564 175.100 M314.559 177.700 C 313.564 179.653,311.284 182.713,308.822 185.400 C 306.685 187.731,306.677 187.748,308.542 186.000 C 311.401 183.319,316.357 176.400,315.418 176.400 C 315.310 176.400,314.923 176.985,314.559 177.700 M336.378 185.661 C 335.895 186.618,334.719 188.525,333.763 189.900 C 332.808 191.275,332.156 192.398,332.313 192.395 C 332.830 192.386,337.771 184.437,337.456 184.122 C 337.346 184.012,336.861 184.705,336.378 185.661 M305.200 188.420 C 302.380 190.681,296.442 193.467,291.600 194.801 C 288.934 195.536,288.938 195.534,289.772 195.568 C 292.701 195.688,304.933 190.050,306.203 187.995 C 306.559 187.419,306.324 187.519,305.200 188.420 M329.287 195.589 C 327.905 197.118,325.385 199.487,323.687 200.852 C 320.198 203.659,319.507 204.276,320.400 203.792 C 322.489 202.657,329.683 196.108,331.266 193.900 C 332.525 192.144,331.979 192.609,329.287 195.589 M318.081 204.972 C 316.448 206.127,316.166 206.403,316.633 206.389 C 316.835 206.383,317.630 205.848,318.400 205.200 C 320.073 203.791,319.913 203.676,318.081 204.972 M314.000 207.455 C 311.660 208.783,310.932 209.526,313.000 208.475 C 314.549 207.689,316.408 206.421,316.000 206.430 C 315.890 206.432,314.990 206.893,314.000 207.455 M308.126 210.597 C 307.287 211.184,307.243 212.532,308.047 213.029 C 308.240 213.148,308.224 212.788,308.011 212.229 C 307.674 211.343,307.764 211.137,308.712 210.622 C 309.311 210.298,309.615 210.025,309.389 210.016 C 309.163 210.007,308.594 210.269,308.126 210.597 M316.441 229.800 C 316.441 230.020,317.503 232.270,318.800 234.800 C 320.097 237.330,321.159 239.220,321.159 239.000 C 321.159 238.780,320.097 236.530,318.800 234.000 C 317.503 231.470,316.441 229.580,316.441 229.800 M293.491 234.300 C 293.637 234.685,294.622 236.761,295.678 238.914 C 296.735 241.067,297.600 242.991,297.600 243.191 C 297.600 243.390,297.789 243.670,298.021 243.813 C 298.252 243.956,298.185 243.471,297.871 242.736 C 295.983 238.310,292.374 231.359,293.491 234.300 M151.270 239.450 C 151.231 240.138,151.105 241.308,150.989 242.050 C 150.796 243.286,150.815 243.317,151.208 242.414 C 151.444 241.872,151.571 240.702,151.489 239.814 C 151.368 238.502,151.327 238.433,151.270 239.450 M53.223 239.900 C 53.236 240.505,53.409 241.720,53.608 242.600 C 53.915 243.952,53.939 243.813,53.766 241.700 L 53.560 239.200 65.324 239.200 L 77.087 239.200 77.491 241.300 C 77.808 242.950,77.906 243.127,77.947 242.126 C 77.976 241.425,77.824 240.390,77.610 239.826 L 77.220 238.800 65.210 238.800 L 53.200 238.800 53.223 239.900 M321.878 240.995 C 322.244 241.762,322.614 242.319,322.701 242.232 C 322.884 242.049,321.670 239.600,321.396 239.600 C 321.295 239.600,321.512 240.228,321.878 240.995 M175.053 244.036 C 174.914 244.731,174.821 245.773,174.847 246.350 C 174.872 246.928,175.055 246.427,175.252 245.239 C 175.637 242.921,175.473 241.934,175.053 244.036 M322.906 243.100 C 322.991 243.265,324.464 246.242,326.181 249.716 C 327.897 253.190,329.382 255.951,329.481 255.852 C 329.675 255.658,323.218 242.800,322.927 242.800 C 322.831 242.800,322.822 242.935,322.906 243.100 M150.222 245.422 C 150.072 246.225,150.038 246.972,150.148 247.082 C 150.258 247.192,150.472 246.625,150.622 245.822 C 150.773 245.019,150.806 244.273,150.696 244.163 C 150.586 244.053,150.373 244.619,150.222 245.422 M78.046 245.200 C 78.027 245.750,78.187 246.470,78.400 246.800 C 78.894 247.564,78.894 246.742,78.400 245.200 L 78.080 244.200 78.046 245.200 M54.068 246.200 C 54.074 246.640,54.224 247.450,54.400 248.000 L 54.720 249.000 54.732 248.000 C 54.738 247.450,54.589 246.640,54.400 246.200 L 54.056 245.400 54.068 246.200 M149.473 248.153 C 149.323 248.545,149.211 249.166,149.225 249.533 C 149.242 249.975,149.381 249.874,149.637 249.234 C 149.849 248.703,149.961 248.082,149.885 247.854 C 149.809 247.627,149.624 247.761,149.473 248.153 M300.038 247.800 C 300.038 248.020,300.561 249.190,301.200 250.400 C 301.839 251.610,302.362 252.420,302.362 252.200 C 302.362 251.980,301.839 250.810,301.200 249.600 C 300.561 248.390,300.038 247.580,300.038 247.800 M78.834 248.600 C 78.822 249.040,78.987 249.670,79.200 250.000 C 79.714 250.795,79.714 249.796,79.200 248.600 L 78.856 247.800 78.834 248.600 M174.173 249.459 C 174.020 250.307,173.764 251.270,173.604 251.600 C 173.209 252.413,172.731 255.002,173.031 254.703 C 173.162 254.571,173.444 253.774,173.658 252.932 C 173.871 252.089,174.221 250.701,174.437 249.847 C 174.652 248.993,174.743 248.210,174.640 248.106 C 174.536 248.003,174.326 248.612,174.173 249.459 M54.834 250.000 C 54.846 250.330,55.011 250.960,55.200 251.400 L 55.544 252.200 55.566 251.400 C 55.578 250.960,55.413 250.330,55.200 250.000 C 54.855 249.467,54.815 249.467,54.834 250.000 M147.817 253.227 C 145.838 258.271,142.376 263.303,138.429 266.875 C 137.203 267.985,136.740 268.526,137.400 268.078 C 141.642 265.199,150.477 251.943,149.082 250.549 C 148.998 250.464,148.428 251.669,147.817 253.227 M55.634 252.800 C 55.646 253.130,55.811 253.760,56.000 254.200 L 56.344 255.000 56.366 254.200 C 56.378 253.760,56.213 253.130,56.000 252.800 C 55.655 252.267,55.615 252.267,55.634 252.800 M81.205 254.916 C 81.174 256.999,89.038 267.070,91.800 268.484 C 92.240 268.709,91.579 267.971,90.331 266.842 C 87.460 264.247,84.509 260.540,82.653 257.200 C 81.859 255.770,81.207 254.742,81.205 254.916 M56.412 255.600 C 56.412 255.930,56.587 256.470,56.800 256.800 C 57.145 257.333,57.188 257.333,57.188 256.800 C 57.188 256.470,57.013 255.930,56.800 255.600 C 56.455 255.067,56.412 255.067,56.412 255.600 M171.877 257.077 C 171.500 258.093,171.258 258.991,171.338 259.072 C 171.419 259.152,171.800 258.393,172.185 257.385 C 172.570 256.376,172.812 255.479,172.723 255.390 C 172.635 255.301,172.254 256.060,171.877 257.077 M58.214 260.400 C 59.039 263.363,64.090 271.826,66.808 274.800 C 68.076 276.188,68.075 276.184,66.716 274.400 C 64.024 270.865,62.581 268.536,60.274 264.000 C 58.988 261.470,58.061 259.850,58.214 260.400 M169.859 261.859 C 169.256 263.089,168.847 264.181,168.952 264.285 C 169.057 264.390,169.613 263.446,170.188 262.188 C 171.548 259.216,171.284 258.952,169.859 261.859 M332.800 263.020 C 332.800 263.472,334.066 265.667,334.231 265.502 C 334.420 265.314,333.247 262.800,332.971 262.800 C 332.877 262.800,332.800 262.899,332.800 263.020 M308.111 264.700 C 308.198 264.865,308.952 266.440,309.786 268.200 C 313.880 276.843,314.451 278.000,314.624 278.000 C 314.887 278.000,314.092 276.218,311.014 269.900 C 309.540 266.875,308.248 264.400,308.143 264.400 C 308.039 264.400,308.024 264.535,308.111 264.700 M166.490 268.128 C 165.369 269.962,163.621 272.483,162.604 273.731 C 161.588 274.979,160.848 276.000,160.961 276.000 C 161.703 276.000,169.111 265.377,168.673 264.940 C 168.593 264.860,167.611 266.294,166.490 268.128 M335.200 267.807 C 335.200 268.222,339.213 276.000,339.427 276.000 C 339.548 276.000,339.578 275.865,339.493 275.700 C 339.408 275.535,338.481 273.645,337.432 271.500 C 335.727 268.015,335.200 267.142,335.200 267.807 M92.805 269.094 C 92.811 269.479,95.616 271.317,95.846 271.087 C 95.940 270.994,95.293 270.438,94.408 269.853 C 93.524 269.268,92.802 268.926,92.805 269.094 M132.300 271.029 C 131.695 271.357,131.200 271.710,131.200 271.813 C 131.200 272.199,131.832 271.957,132.800 271.200 C 133.989 270.270,133.811 270.209,132.300 271.029 M102.200 274.000 C 102.336 274.220,102.842 274.387,103.324 274.372 C 104.169 274.345,104.171 274.331,103.400 274.000 C 102.299 273.527,101.908 273.527,102.200 274.000 M125.600 274.000 C 124.776 274.264,124.741 274.326,125.400 274.354 C 125.840 274.373,126.470 274.213,126.800 274.000 C 127.501 273.547,127.014 273.547,125.600 274.000 M105.000 274.797 C 105.764 275.128,108.714 275.355,108.367 275.056 C 108.275 274.977,107.300 274.809,106.200 274.682 C 104.913 274.533,104.485 274.574,105.000 274.797 M122.200 274.800 L 120.600 275.086 122.000 275.137 C 122.770 275.165,123.670 275.013,124.000 274.800 C 124.655 274.377,124.562 274.377,122.200 274.800 M110.400 275.652 C 112.618 276.008,117.874 276.012,119.121 275.660 C 119.627 275.517,117.467 275.392,114.321 275.382 C 110.646 275.370,109.244 275.467,110.400 275.652 M70.190 278.790 C 71.490 280.104,72.611 281.122,72.680 281.053 C 72.836 280.897,68.364 276.400,68.052 276.400 C 67.927 276.400,68.889 277.475,70.190 278.790 M159.400 277.362 C 157.770 279.105,157.502 279.751,159.005 278.313 C 159.860 277.496,160.479 276.755,160.380 276.667 C 160.281 276.579,159.840 276.892,159.400 277.362 M339.600 276.553 C 339.600 276.982,340.790 279.200,341.021 279.200 C 341.131 279.200,340.923 278.615,340.559 277.900 C 339.817 276.440,339.600 276.136,339.600 276.553 M154.789 281.651 C 153.585 282.754,152.977 283.419,153.439 283.128 C 154.677 282.348,157.308 279.975,157.131 279.797 C 157.047 279.713,155.993 280.547,154.789 281.651 M341.200 279.747 C 341.200 280.180,343.188 284.000,343.413 284.000 C 343.523 284.000,343.139 283.055,342.559 281.900 C 341.443 279.679,341.200 279.294,341.200 279.747 M73.800 281.963 C 74.626 282.917,76.800 284.592,76.800 284.275 C 76.800 284.177,75.945 283.409,74.900 282.568 C 73.855 281.728,73.360 281.455,73.800 281.963 M316.438 281.800 C 316.438 282.020,316.961 283.190,317.600 284.400 C 318.239 285.610,318.762 286.420,318.762 286.200 C 318.762 285.980,318.239 284.810,317.600 283.600 C 316.961 282.390,316.438 281.580,316.438 281.800 M149.439 285.623 C 147.920 286.710,146.805 287.600,146.961 287.600 C 147.365 287.600,151.901 284.484,152.199 284.002 C 152.571 283.399,152.428 283.483,149.439 285.623 M77.200 284.562 C 77.200 284.881,81.237 287.696,81.425 287.509 C 81.528 287.406,80.619 286.662,79.406 285.857 C 78.193 285.051,77.200 284.468,77.200 284.562 M343.623 284.509 C 343.611 284.679,344.330 286.270,345.223 288.046 C 347.900 293.369,348.705 293.000,334.413 293.000 L 322.225 293.000 321.319 291.400 C 320.821 290.520,320.410 289.955,320.407 290.146 C 320.403 290.336,320.793 291.191,321.274 292.046 L 322.147 293.600 334.425 293.600 C 349.435 293.600,348.590 294.000,345.699 288.268 C 344.570 286.031,343.636 284.339,343.623 284.509 M82.158 287.932 C 82.283 288.134,83.333 288.759,84.492 289.322 C 87.236 290.655,91.113 292.160,90.600 291.693 C 90.380 291.492,89.570 291.093,88.800 290.806 C 88.030 290.519,86.170 289.672,84.666 288.925 C 83.162 288.177,82.033 287.731,82.158 287.932 M144.700 288.427 C 143.088 289.278,142.774 289.637,143.900 289.341 C 144.557 289.168,146.833 287.608,146.400 287.627 C 146.290 287.631,145.525 287.992,144.700 288.427 M139.800 290.800 C 138.480 291.434,137.580 291.958,137.800 291.964 C 138.020 291.970,139.280 291.453,140.600 290.815 C 141.920 290.177,142.820 289.653,142.600 289.651 C 142.380 289.649,141.120 290.166,139.800 290.800 M93.365 292.827 C 94.666 293.254,95.797 293.536,95.880 293.453 C 96.075 293.258,92.214 291.992,91.525 292.025 C 91.236 292.039,92.064 292.400,93.365 292.827 M134.616 292.664 C 133.745 292.978,132.935 293.331,132.817 293.450 C 132.501 293.766,134.809 293.153,136.200 292.551 C 137.800 291.858,136.617 291.943,134.616 292.664 M96.433 293.747 C 96.525 293.828,97.320 294.004,98.200 294.138 C 99.315 294.307,99.558 294.271,99.000 294.019 C 98.232 293.671,96.090 293.444,96.433 293.747 M129.600 294.000 C 128.836 294.494,129.658 294.494,131.200 294.000 L 132.200 293.680 131.200 293.646 C 130.650 293.627,129.930 293.787,129.600 294.000 M101.000 294.800 C 101.660 294.968,102.650 295.109,103.200 295.113 L 104.200 295.120 103.200 294.800 C 102.650 294.624,101.660 294.483,101.000 294.487 L 99.800 294.495 101.000 294.800 M125.800 294.800 L 125.000 295.144 125.800 295.125 C 126.240 295.114,127.140 294.968,127.800 294.800 L 129.000 294.495 127.800 294.475 C 127.140 294.465,126.240 294.611,125.800 294.800 M106.600 295.618 C 107.700 295.790,109.680 295.918,111.000 295.904 L 113.400 295.878 110.800 295.586 C 109.370 295.425,107.390 295.297,106.400 295.300 L 104.600 295.307 106.600 295.618 M118.600 295.600 L 116.200 295.866 118.600 295.910 C 119.920 295.934,121.720 295.805,122.600 295.623 L 124.200 295.292 122.600 295.313 C 121.720 295.325,119.920 295.454,118.600 295.600 " stroke="none" fill="#84741c" fill-rule="evenodd"></path><path id="path4" d="M151.387 104.494 C 151.281 104.772,151.241 134.520,151.299 170.600 L 151.402 236.200 151.501 170.294 L 151.600 104.388 163.900 104.494 L 176.200 104.600 176.200 172.076 C 176.200 209.188,176.336 239.186,176.501 238.738 C 176.667 238.290,176.757 207.836,176.701 171.062 L 176.600 104.200 164.090 104.094 C 154.296 104.012,151.538 104.098,151.387 104.494 M222.643 104.633 C 222.196 105.798,222.365 292.388,222.814 293.226 C 223.324 294.178,246.585 294.455,247.520 293.520 C 247.888 293.152,247.978 284.121,247.904 254.820 L 247.808 216.600 247.599 255.000 C 247.484 276.120,247.347 293.445,247.295 293.500 C 247.243 293.555,241.800 293.600,235.200 293.600 L 223.200 293.600 223.200 199.003 L 223.200 104.405 252.100 104.300 L 281.000 104.195 251.943 104.097 C 225.758 104.010,222.862 104.063,222.643 104.633 M285.633 104.546 C 285.725 104.626,286.790 104.800,288.000 104.932 C 289.437 105.088,289.922 105.048,289.400 104.814 C 288.643 104.475,285.279 104.236,285.633 104.546 M292.033 105.343 C 292.125 105.421,292.830 105.601,293.600 105.742 C 294.585 105.923,294.822 105.882,294.400 105.606 C 293.858 105.250,291.637 105.003,292.033 105.343 M316.956 113.694 C 320.210 115.872,322.347 117.200,322.595 117.200 C 323.048 117.200,319.175 114.607,317.599 113.856 C 316.830 113.489,316.540 113.416,316.956 113.694 M325.400 119.717 C 326.720 120.953,327.953 121.972,328.141 121.982 C 328.520 122.002,325.166 118.921,323.844 118.035 C 323.380 117.724,324.080 118.480,325.400 119.717 M329.200 123.325 C 329.200 123.394,329.785 123.979,330.500 124.625 L 331.800 125.800 330.625 124.500 C 329.530 123.288,329.200 123.016,329.200 123.325 M247.797 160.200 L 247.800 196.200 264.000 196.207 L 280.200 196.214 264.102 196.102 L 248.004 195.991 247.899 160.095 L 247.794 124.200 247.797 160.200 M279.800 124.779 C 281.016 125.110,284.673 125.326,284.367 125.049 C 284.275 124.966,282.940 124.798,281.400 124.675 C 279.634 124.535,279.043 124.573,279.800 124.779 M287.800 125.600 C 287.936 125.820,288.442 125.987,288.924 125.972 C 289.769 125.945,289.771 125.931,289.000 125.600 C 287.899 125.127,287.508 125.127,287.800 125.600 M332.802 127.433 C 332.803 127.635,333.268 128.340,333.835 129.000 L 334.866 130.200 333.963 128.800 C 332.804 127.004,332.800 126.999,332.802 127.433 M302.800 130.924 C 302.800 131.017,303.565 131.599,304.500 132.217 C 305.435 132.834,307.207 134.253,308.437 135.370 C 309.766 136.576,309.585 136.345,307.990 134.800 C 305.662 132.545,302.800 130.408,302.800 130.924 M336.481 133.391 C 336.959 134.376,337.419 135.114,337.503 135.030 C 337.684 134.849,336.068 131.600,335.797 131.600 C 335.694 131.600,336.002 132.406,336.481 133.391 M312.237 140.200 C 312.597 140.750,312.957 141.200,313.037 141.200 C 313.117 141.200,312.978 140.750,312.727 140.200 C 312.477 139.650,312.116 139.200,311.927 139.200 C 311.737 139.200,311.876 139.650,312.237 140.200 M314.001 143.011 C 314.001 143.237,314.236 143.777,314.524 144.211 C 314.812 144.645,315.292 145.766,315.589 146.702 C 315.886 147.638,316.207 148.327,316.301 148.232 C 316.396 148.137,316.235 147.371,315.943 146.530 C 315.347 144.814,314.004 142.378,314.001 143.011 M341.628 148.076 C 341.696 149.344,342.342 150.254,342.372 149.124 C 342.387 148.532,342.220 147.936,342.000 147.800 C 341.780 147.664,341.613 147.788,341.628 148.076 M316.800 150.910 C 316.800 151.483,316.987 152.068,317.216 152.210 C 317.489 152.379,317.538 152.077,317.360 151.334 C 316.992 149.801,316.800 149.656,316.800 150.910 M317.800 160.800 C 317.800 165.199,317.914 167.641,318.060 166.400 C 318.204 165.190,318.321 162.670,318.321 160.800 C 318.321 158.930,318.204 156.410,318.060 155.200 C 317.914 153.959,317.800 156.401,317.800 160.800 M342.685 155.627 C 342.808 157.042,342.974 158.275,343.054 158.367 C 343.381 158.741,343.160 154.156,342.825 153.627 C 342.599 153.269,342.546 154.020,342.685 155.627 M342.867 165.867 C 342.830 166.564,342.684 167.464,342.541 167.867 C 342.343 168.428,342.397 168.495,342.768 168.153 C 343.052 167.892,343.188 167.058,343.095 166.153 C 342.952 164.773,342.927 164.742,342.867 165.867 M317.049 169.415 C 316.912 169.773,316.818 170.456,316.841 170.933 C 316.867 171.481,317.003 171.286,317.210 170.403 C 317.560 168.916,317.465 168.333,317.049 169.415 M342.046 171.067 C 342.021 171.324,341.884 171.864,341.741 172.267 C 341.540 172.836,341.594 172.897,341.979 172.542 C 342.252 172.291,342.389 171.751,342.284 171.342 C 342.179 170.934,342.072 170.810,342.046 171.067 M316.185 172.900 C 316.036 173.395,315.287 175.060,314.519 176.600 C 313.751 178.140,313.304 179.220,313.526 179.000 C 314.436 178.098,317.161 172.000,316.654 172.000 C 316.544 172.000,316.333 172.405,316.185 172.900 M336.554 186.500 C 336.187 187.215,335.373 188.552,334.744 189.472 C 334.115 190.392,333.601 191.292,333.602 191.472 C 333.604 191.900,335.819 188.625,336.829 186.700 C 337.262 185.875,337.527 185.200,337.418 185.200 C 337.310 185.200,336.921 185.785,336.554 186.500 M305.705 187.325 C 304.993 187.806,304.408 188.344,304.405 188.520 C 304.402 188.697,305.030 188.360,305.800 187.773 C 306.570 187.186,307.200 186.636,307.200 186.553 C 307.200 186.327,307.119 186.369,305.705 187.325 M331.201 194.198 C 330.686 194.748,330.339 195.264,330.432 195.346 C 330.524 195.428,331.019 194.978,331.530 194.347 C 332.676 192.935,332.474 192.844,331.201 194.198 M286.000 195.600 C 285.205 196.114,286.204 196.114,287.400 195.600 L 288.200 195.256 287.400 195.234 C 286.960 195.222,286.330 195.387,286.000 195.600 M324.370 201.100 L 323.400 202.200 324.600 201.200 C 325.260 200.650,325.875 200.155,325.967 200.100 C 326.058 200.045,325.955 200.000,325.736 200.000 C 325.518 200.000,324.903 200.495,324.370 201.100 M320.104 204.111 C 318.511 205.228,317.275 206.208,317.357 206.290 C 317.537 206.470,322.687 202.906,323.016 202.375 C 323.343 201.844,323.314 201.862,320.104 204.111 M286.434 220.600 C 286.434 220.820,286.778 221.630,287.200 222.400 C 287.622 223.170,287.966 223.620,287.966 223.400 C 287.966 223.180,287.622 222.370,287.200 221.600 C 286.778 220.830,286.434 220.380,286.434 220.600 M319.878 235.795 C 320.244 236.562,320.614 237.119,320.701 237.032 C 320.884 236.849,319.670 234.400,319.396 234.400 C 319.295 234.400,319.512 235.028,319.878 235.795 M150.592 239.738 C 150.439 241.169,150.393 242.578,150.490 242.870 C 150.587 243.161,150.790 242.068,150.942 240.441 C 151.093 238.814,151.139 237.405,151.043 237.310 C 150.948 237.215,150.745 238.308,150.592 239.738 M53.067 238.267 C 52.710 238.624,52.778 242.801,53.157 243.767 C 53.330 244.208,53.445 243.274,53.429 241.567 L 53.400 238.600 65.152 238.494 C 77.837 238.379,77.844 238.380,78.113 240.530 L 78.272 241.800 78.336 240.380 C 78.371 239.599,78.184 238.744,77.920 238.480 C 77.399 237.959,53.579 237.755,53.067 238.267 M175.646 244.267 C 175.621 244.524,175.484 245.064,175.341 245.467 C 175.140 246.036,175.194 246.097,175.579 245.742 C 175.852 245.491,175.989 244.951,175.884 244.542 C 175.779 244.134,175.672 244.010,175.646 244.267 M149.518 246.200 C 149.379 246.860,149.090 248.074,148.876 248.897 C 148.659 249.728,148.644 250.296,148.843 250.174 C 149.039 250.052,149.200 249.592,149.200 249.150 C 149.200 248.709,149.391 247.990,149.625 247.553 C 149.859 247.116,149.987 246.363,149.910 245.879 C 149.792 245.136,149.731 245.185,149.518 246.200 M53.600 246.710 C 53.600 247.393,53.777 248.062,53.994 248.196 C 54.240 248.348,54.294 247.945,54.137 247.120 C 53.800 245.351,53.600 245.199,53.600 246.710 M298.509 245.900 C 298.595 246.065,298.974 246.875,299.352 247.700 C 299.729 248.525,300.130 249.200,300.242 249.200 C 300.355 249.200,300.377 249.065,300.291 248.900 C 300.205 248.735,299.826 247.925,299.448 247.100 C 299.071 246.275,298.670 245.600,298.558 245.600 C 298.445 245.600,298.423 245.735,298.509 245.900 M83.000 257.600 C 83.341 258.260,83.711 258.800,83.821 258.800 C 83.931 258.800,83.741 258.260,83.400 257.600 C 83.059 256.940,82.689 256.400,82.579 256.400 C 82.469 256.400,82.659 256.940,83.000 257.600 M330.814 257.699 C 330.794 258.131,336.388 269.200,336.627 269.200 C 336.738 269.200,336.667 268.885,336.471 268.500 C 336.274 268.115,335.182 265.910,334.044 263.600 C 331.709 258.861,330.835 257.263,330.814 257.699 M142.493 261.600 C 142.218 262.040,142.131 262.400,142.300 262.400 C 142.469 262.400,142.832 262.040,143.107 261.600 C 143.382 261.160,143.469 260.800,143.300 260.800 C 143.131 260.800,142.768 261.160,142.493 261.600 M88.885 264.994 C 90.582 266.737,92.025 268.082,92.092 267.982 C 92.159 267.882,90.771 266.456,89.007 264.812 L 85.800 261.825 88.885 264.994 M138.984 265.616 C 138.116 266.505,136.280 267.966,134.903 268.863 C 133.526 269.760,132.400 270.573,132.400 270.671 C 132.400 271.207,137.681 267.401,139.381 265.639 C 140.251 264.738,140.872 264.000,140.762 264.000 C 140.652 264.000,139.852 264.727,138.984 265.616 M167.453 267.700 L 166.733 269.000 167.558 268.000 C 168.289 267.113,168.614 266.400,168.286 266.400 C 168.224 266.400,167.849 266.985,167.453 267.700 M92.800 268.563 C 92.800 268.643,93.250 269.003,93.800 269.363 C 94.350 269.724,94.800 269.863,94.800 269.673 C 94.800 269.484,94.350 269.123,93.800 268.873 C 93.250 268.622,92.800 268.483,92.800 268.563 M165.845 270.188 C 165.480 270.744,165.322 271.200,165.495 271.200 C 165.884 271.200,166.919 269.586,166.682 269.349 C 166.586 269.253,166.210 269.631,165.845 270.188 M96.433 270.949 C 96.976 271.435,99.199 272.369,99.197 272.110 C 99.194 271.778,97.296 270.800,96.654 270.800 C 96.441 270.800,96.342 270.867,96.433 270.949 M105.800 274.400 C 106.901 274.873,107.292 274.873,107.000 274.400 C 106.864 274.180,106.358 274.013,105.876 274.028 C 105.031 274.055,105.029 274.069,105.800 274.400 M122.200 274.400 C 121.908 274.873,122.299 274.873,123.400 274.400 C 124.171 274.069,124.169 274.055,123.324 274.028 C 122.842 274.013,122.336 274.180,122.200 274.400 M112.700 275.095 C 113.855 275.176,115.745 275.176,116.900 275.095 C 118.055 275.014,117.110 274.948,114.800 274.948 C 112.490 274.948,111.545 275.014,112.700 275.095 M67.481 276.587 C 67.877 277.131,68.366 277.581,68.570 277.587 C 68.773 277.594,68.517 277.150,68.000 276.600 C 66.801 275.323,66.557 275.318,67.481 276.587 M69.600 278.943 C 70.150 279.568,71.320 280.629,72.200 281.300 L 73.800 282.520 72.150 280.960 C 69.390 278.350,68.366 277.539,69.600 278.943 M314.108 278.300 C 314.193 278.465,314.757 279.635,315.361 280.900 C 315.965 282.165,316.546 283.200,316.653 283.200 C 316.760 283.200,316.777 283.065,316.692 282.900 C 316.607 282.735,316.043 281.565,315.439 280.300 C 314.835 279.035,314.254 278.000,314.147 278.000 C 314.040 278.000,314.023 278.135,314.108 278.300 M153.400 283.420 C 152.520 284.185,150.945 285.367,149.900 286.047 C 148.855 286.727,148.000 287.375,148.000 287.488 C 148.000 287.866,153.594 283.952,155.129 282.500 C 156.330 281.364,154.877 282.137,153.400 283.420 M75.069 283.720 C 77.716 285.875,82.000 288.701,82.000 288.293 C 82.000 288.219,80.564 287.201,78.809 286.031 C 77.054 284.861,75.412 283.655,75.160 283.352 C 74.908 283.048,74.530 282.800,74.320 282.800 C 74.110 282.800,74.447 283.214,75.069 283.720 M316.838 283.800 C 316.838 284.020,317.361 285.190,318.000 286.400 C 318.639 287.610,319.162 288.420,319.162 288.200 C 319.162 287.980,318.639 286.810,318.000 285.600 C 317.361 284.390,316.838 283.580,316.838 283.800 M82.400 288.579 C 82.400 288.689,82.940 289.059,83.600 289.400 C 84.260 289.741,84.800 289.931,84.800 289.821 C 84.800 289.711,84.260 289.341,83.600 289.000 C 82.940 288.659,82.400 288.469,82.400 288.579 M347.397 292.117 L 347.400 293.400 334.800 293.510 C 322.353 293.618,322.191 293.609,321.500 292.766 C 321.115 292.296,320.800 292.083,320.800 292.294 C 320.800 293.903,321.791 294.015,335.038 293.906 L 347.800 293.800 347.931 292.651 C 348.003 292.019,347.912 291.352,347.728 291.168 C 347.545 290.985,347.396 291.412,347.397 292.117 M97.000 294.400 C 97.136 294.620,97.642 294.787,98.124 294.772 C 98.969 294.745,98.971 294.731,98.200 294.400 C 97.099 293.927,96.708 293.927,97.000 294.400 M100.590 295.184 C 100.732 295.413,101.317 295.600,101.890 295.600 C 103.144 295.600,102.999 295.408,101.466 295.040 C 100.723 294.862,100.421 294.911,100.590 295.184 M126.800 295.200 L 125.800 295.520 126.876 295.560 C 127.468 295.582,128.064 295.420,128.200 295.200 C 128.481 294.745,128.220 294.745,126.800 295.200 M106.200 296.024 C 106.640 296.200,108.170 296.342,109.600 296.340 C 112.881 296.336,112.307 296.118,108.400 295.885 C 106.699 295.783,105.746 295.843,106.200 296.024 M120.000 296.000 L 117.400 296.262 120.000 296.325 C 121.430 296.359,122.870 296.213,123.200 296.000 C 123.733 295.655,123.733 295.619,123.200 295.675 C 122.870 295.710,121.430 295.856,120.000 296.000 " stroke="none" fill="#38341c" fill-rule="evenodd"></path></g></svg>